<svg xml:space="preserve" viewBox="0 0 49.629 49.636" xmlns="http://www.w3.org/2000/svg" width="50" height="50">
<path fill="#ffffff" d="M28.13,11l-3.43,3.14c-0.23,0.23-0.61,0.23-0.84,0L20.42,11c-0.23-0.23-0.23-0.61,0-0.84l3.43-5.38c0.23-0.23,0.61-0.23,0.84,0l3.43,5.38C28.36,10.39,28.36,10.77,28.13,11z"/>
<path fill="#ffffff" d="M24.59,0C11.01,0,0,11.01,0,24.59c0,13.2,10.4,23.97,23.46,24.56v-0.4v-1.33v-29.6c0.01-0.1,0.01-0.19,0-0.27c-0.46-3.26-6.98-7.5-6.98-7.5s-0.98,6.08,1.46,8.55c1.9,1.92,2.99,2.56,3.55,2.77v2.8l-8.13-6.63c0,0-1.26,6.27,1.46,8.55c2.68,2.25,5.51,4.37,6.66,5.21v3.06L9.93,25.05c0,0-1.26,6.27,1.46,8.55c3.04,2.56,8.78,6.89,10.11,7.89v5.75C10.33,45.73,1.71,36.17,1.71,24.59c0-12.62,10.23-22.85,22.85-22.85c12.62,0,22.85,10.23,22.85,22.85c0,12.44-9.94,22.55-22.31,22.84v1.74C38.45,48.89,49.19,38,49.19,24.59C49.19,11.01,38.17,0,24.59,0z"/>
<path fill="#ffffff" d="M32.27,15.33c-0.11,4.28-7.16,8.47-7.16,8.47s-0.14-4.04,0-5.39c0.33-3.14,7.07-7.61,7.07-7.61S32.3,13.98,32.27,15.33z"/>
<path fill="#ffffff" d="M37.83,33.19c-2.23,3.38-5.06,5.13-10.57,9.2C26.91,42.64,25.11,44,25.11,44l0,0c-0.01-0.76-0.13-3.97-0.09-5.31c0.04-1.36,1.27-2.87,1.84-3.4c1.81-1.68,5.72-4.8,11.17-9.1C38.72,29.41,38.61,32,37.83,33.19z"/>
<path fill="#ffffff" d="M34.97,25.37c-1.24,1.76-1.95,2.61-7.64,6.84c-0.36,0.27-2.21,1.68-2.21,1.68l0,0c0-0.77-0.06-4.03,0-5.39c0.06-1.38,1.34-2.94,1.94-3.49c1.87-1.73,2.61-2.29,8.25-6.76C35.94,21.52,35.81,24.17,34.97,25.37z"/>
</svg>