<svg xmlns="http://www.w3.org/2000/svg" width="600" height="300" fill="none" viewBox="0 0 84 16"><path fill="#ffffff" d="M15.538 5.02c0-3.41-2.127-5.014-4.282-5.014-1.818 0-4.282 1.291-4.282 4.718 0 2.27.5 3.974 2.826 7.177 0 0-1.473 1.403-3.309 1.403-3.128 0-3.65-3.01-3.556-5.64.08-2.183.545-4.7 1.347-7.294H1.285A28.542 28.542 0 0 0 0 8.733c0 4.893 2.92 7.255 6.108 7.255a7.664 7.664 0 0 0 5.12-2.037l1.23 1.762h3.364l-2.686-3.695s2.402-2.95 2.402-6.998Zm-3.367 3.561a28.386 28.386 0 0 1-.638 1.262l-.676-.925a6.475 6.475 0 0 1-1.22-3.68c0-1.525.662-2.55 1.644-2.55.983 0 1.659 1.03 1.659 2.692a7.968 7.968 0 0 1-.769 3.201ZM43.391.023a7.94 7.94 0 0 0-7.411 4.909 7.923 7.923 0 0 0-.598 3.066 8.016 8.016 0 0 0 4.99 7.406 8.03 8.03 0 0 0 8.752-1.795 8.086 8.086 0 0 0 0-11.203A7.896 7.896 0 0 0 43.392.01v.013Zm0 13.043a5.065 5.065 0 0 1-4.912-3.054 5.053 5.053 0 0 1 2.897-6.74 5.064 5.064 0 0 1 2.016-.306 4.992 4.992 0 0 1 4.672 3.097c.25.614.377 1.272.37 1.935a4.996 4.996 0 0 1-5.042 5.057v.011ZM61.59.023a7.943 7.943 0 0 0-7.411 4.91 7.928 7.928 0 0 0-.599 3.065 8.015 8.015 0 0 0 4.993 7.404 8.03 8.03 0 0 0 8.751-1.799 8.084 8.084 0 0 0 0-11.203A7.893 7.893 0 0 0 61.589.01v.013Zm0 13.043a5.063 5.063 0 0 1-4.687-3.11 5.053 5.053 0 0 1 1.087-5.517 5.062 5.062 0 0 1 8.645 3.57 5.004 5.004 0 0 1-3.108 4.671 5.013 5.013 0 0 1-1.937.375v.011ZM84 15.731h-3.428l-5.734-7.698L80.57.35h3.424l-5.86 7.685L84 15.73ZM74.838.366V15.73h-2.92V.366h2.92ZM30.176 10.19h3.143a7.882 7.882 0 0 1-2.254 3.643 8.071 8.071 0 0 1-5.48 2.155A7.985 7.985 0 0 1 18.2 11.09a7.968 7.968 0 0 1 1.697-8.695A7.93 7.93 0 0 1 25.586 0c3.53 0 6.766 2.48 7.708 5.777h-3.115a5.007 5.007 0 0 0-4.593-2.836 5.063 5.063 0 0 0-5.06 5.057 5.055 5.055 0 0 0 5.06 5.057 4.997 4.997 0 0 0 4.59-2.865Z"/></svg>